<svg version="1.2" xmlns="http://www.w3.org/2000/svg" viewBox="0 0 77 77" width="77" height="77">
	<title>ai-chatbot</title>
	<style>
		.s0 { fill: #ffffff } 
	</style>
	<g>
		<path fill-rule="evenodd" class="s0" d="m37.4 4.5l0.6-2c0.3-1 1.7-1 2 0l0.7 2q0.1 0.4 0.3 0.8 0.1 0.2 0.2 0.4 0 0.1 0.1 0.2c1.2 2.6 3.3 4.6 5.8 5.9q0.1 0 0.2 0.1 0.2 0.1 0.5 0.2 0.4 0.1 0.8 0.3l2 0.6c0.9 0.3 0.9 1.7 0 2l-2 0.7q-0.4 0.1-0.8 0.3-0.3 0.1-0.5 0.2-0.1 0-0.2 0.1c-2.5 1.2-4.6 3.3-5.8 5.8q-0.1 0.1-0.1 0.2-0.1 0.2-0.2 0.5-0.2 0.4-0.3 0.8l-0.7 2c-0.3 0.9-1.7 0.9-2 0l-0.6-2q-0.2-0.4-0.3-0.8-0.1-0.3-0.2-0.5-0.1-0.1-0.1-0.2c-1.3-2.5-3.3-4.6-5.9-5.8q-0.1-0.1-0.2-0.1-0.2-0.1-0.4-0.2-0.4-0.2-0.8-0.3l-2-0.7c-1-0.3-1-1.7 0-2l2-0.6q0.4-0.2 0.8-0.3 0.2-0.1 0.4-0.2 0.1-0.1 0.2-0.1c2.6-1.3 4.6-3.3 5.9-5.9q0-0.1 0.1-0.2 0.1-0.2 0.2-0.4 0.1-0.4 0.3-0.8zm1.6 5.8c-1 1.4-2.3 2.7-3.7 3.7 1.4 1.1 2.7 2.3 3.7 3.8 1.1-1.5 2.3-2.7 3.8-3.8-1.5-1-2.7-2.3-3.8-3.7z"/>
		<path class="s0" d="m69.3 12.9c-0.3-0.9-1.7-0.9-2 0l-0.2 0.8c-0.5 1.3-1.4 2.3-2.7 2.7l-0.8 0.2c-0.9 0.4-0.9 1.7 0 2l0.8 0.3c1.3 0.4 2.2 1.4 2.7 2.6l0.2 0.8c0.3 1 1.7 1 2 0l0.3-0.8c0.4-1.2 1.4-2.2 2.6-2.6l0.8-0.3c0.9-0.3 0.9-1.6 0-2l-0.8-0.2c-1.2-0.4-2.2-1.4-2.6-2.7z"/>
		<path fill-rule="evenodd" class="s0" d="m52.9 25.3q0.1-0.3 0.3-0.7 0.1-0.3 0.2-0.6l0.7-2.2c0.3-0.9 1.7-0.9 2 0l0.7 2.2q0.1 0.3 0.2 0.6 0.2 0.4 0.3 0.7c1.7 3.9 4.8 7 8.7 8.7h0.1q0.3 0.2 0.7 0.3 0.3 0.1 0.6 0.2l2.2 0.8c0.9 0.3 0.9 1.6 0 1.9l-2.2 0.8q-0.3 0.1-0.6 0.2-0.4 0.1-0.7 0.3h-0.1c-3.9 1.7-7 4.8-8.7 8.7q-0.1 0.3-0.3 0.7-0.1 0.3-0.2 0.6l-0.7 2.2c-0.3 1-1.7 1-2 0l-0.7-2.2q-0.1-0.3-0.2-0.6-0.2-0.4-0.3-0.7c-1.7-3.9-4.8-7-8.7-8.7q-0.4-0.2-0.7-0.3-0.3-0.1-0.6-0.2l-2.2-0.8c-1-0.3-1-1.6 0-1.9l2.2-0.8q0.3-0.1 0.6-0.2 0.3-0.1 0.7-0.3c3.9-1.7 7-4.8 8.7-8.7zm2.2 17.3c1.6-2.6 3.7-4.7 6.3-6.3-2.6-1.6-4.7-3.8-6.3-6.3-1.6 2.5-3.8 4.7-6.3 6.3 2.5 1.6 4.7 3.7 6.3 6.3z"/>
		<path class="s0" d="m9.9 24.5c0-1.2 0.9-2.1 2.1-2.1h6.3c1.1 0 2-0.9 2-2.1 0-1.1-0.9-2-2.1-2h-6.2c-3.5 0-6.3 2.7-6.3 6.2v33.3c0 3.5 2.8 6.3 6.3 6.3h6.3v6.2c0 3.5 3.9 5.4 6.6 3.4l12.2-9.2c0.4-0.3 0.8-0.4 1.3-0.4h27.8c3.4 0 6.2-2.8 6.2-6.3v-8.3c0-1.2-0.9-2.1-2.1-2.1-1.1 0-2 0.9-2 2.1v8.3c0 1.2-1 2.1-2.1 2.1h-27.8c-1.4 0-2.7 0.5-3.8 1.3l-12.2 9.1v-7.3c0-1.7-1.4-3.1-3.1-3.1h-7.3c-1.2 0-2.1-0.9-2.1-2.1z"/>
	</g>
</svg>