<svg version="1.2" xmlns="http://www.w3.org/2000/svg" viewBox="0 0 3776 3191" width="3776" height="3191">
	<title>noun-ai-chatbot-6262194</title>
	<style>
		.s0 { fill: #000000 } 
	</style>
	<g>
		<path class="s0" d="m437 3031v-82.8l-17.8-0.6c-28.2-1-53.1-5.3-74.2-13-75-27.3-129.7-87.5-149.5-164.2-4.1-16.1-5.7-29.1-6.2-51.3l-0.6-22.2h-94.3-94.4v-25-25h94.5 94.5v-289.5-289.5h-94.5-94.5v-25-25h94.4 94.3l0.6-22.3c0.5-23.7 1.8-33.4 6.7-52.7 4.2-16.7 8.2-27.6 16.4-44.5 30.9-63.8 90.6-111.1 158.6-125.9 13.3-2.9 33.6-5.6 41.8-5.6h5.7v-94.3-94.2l24.8-0.3 24.7-0.3v94.5 94.6h146.5 146.5v-92.1-92l24.7 0.3 24.8 0.3v91.7 91.8h135.5 135.5v-94.3-94.2l24.7-0.3 24.8-0.3v94.4 94.4l29.7 0.5c32.3 0.6 40.5 1.6 64.1 7.8 54.9 14.6 104.1 50.5 135.4 99 16.6 25.7 27.5 53 33.5 84 2.2 11.3 2.6 17.2 3 36.7l0.5 23.3h94.9 94.9l-0.2 24.7-0.3 24.8h-94.8-94.7v129.5 129.5l94.5-0.3 94.5-0.3v25 25.1h-94.5-94.5v135.5 135.5h95 95v25 25l-94.9-0.3-94.9-0.2-0.5 23.5c-0.5 24.3-1.4 31.9-6.3 51.2-5.5 22.1-16.4 47.6-28.6 67.1-18.3 29.3-47.1 57.6-76.8 75.5-36.2 21.8-71.3 31.9-117.3 33.7l-17.7 0.7v82.9 82.9h-25-25v-83-83h-135.5-135.5v83 83h-25-25v-83-83h-146-146v83 83h-25-25zm758.5-135.9c30.1-5.9 56-17.3 79-34.7 10.5-7.9 28.6-26 36.2-36.1 21-28.2 33.4-60.9 36.3-96.2 1.4-16.7 1.3-724.7 0-741.9-3.6-44-21.6-83.6-52.3-114.5-23.5-23.9-54.5-41.7-86.5-49.8-20.8-5.3-0.5-5.1-414.3-5.1-260.8 0-386.1 0.3-392.7 1.1-62.8 6.8-120.3 48.9-146.5 107.4-7.7 17.2-12.2 33.4-14.7 52.5-0.8 6.1-1 116.9-0.8 385l0.3 376.5 2.7 11.5c8.7 37.7 24.5 66.8 50.3 92.5 16.6 16.7 33.4 28.4 54.3 38 18 8.2 37 13.5 55.7 15.4 4.4 0.5 182.1 0.8 395 0.7l387-0.2c0 0 11-2.1 11-2.1zm-531.5-185c-10.2-0.8-26.8-3.6-37.4-6.3-81.1-21.1-143-80.9-167.2-161.4-3.4-11.2-7.1-31.1-8.3-44.6-1.4-15.3-1.5-244.3-0.1-259.5 5.3-57.4 29.3-107.5 70.8-147.7 29.9-29 64.6-48.2 105.7-58.7 26.7-6.7 20.3-6.5 156.5-6.9 84.3-0.2 127.8 0 137 0.8 81.4 6.7 153.3 55 189.9 127.7 10.5 20.8 17.3 41.3 22.3 67.3 2.2 11.4 2.2 12.5 2.5 139 0.3 86.9 0.1 131.1-0.7 138.9-4.4 45.8-22 89.2-50.9 125.5-16.2 20.2-42.3 42.5-65.1 55.6-19.6 11.2-46.8 21.6-67.5 25.9-25 5.1-26 5.1-159 4.9-68.2-0.1-126-0.3-128.5-0.5zm272.4-52.1c70.7-15 124.1-64.3 143.1-132.1 6.2-22.4 5.9-14.7 6.3-152.1 0.2-88.3 0-128.5-0.8-135.5-5.4-48.4-29.4-92.2-67-122.4-9.3-7.5-22.9-16.4-31.9-21.1-8.1-4.1-25.7-10.8-35.2-13.3-23.7-6.4-15.7-6.1-148.9-6.5-144.8-0.4-147.4-0.2-176 9.4-40.1 13.5-72.1 38-95.3 72.7-13.2 19.6-23.5 45.6-27.9 69.8l-2.3 12.4v129c0 140.8-0.3 133.4 5.7 155.5 14 52.4 49.4 95.4 97.3 118.5 18.5 8.9 41.4 15.7 59.1 17.4 4.9 0.5 66 0.8 135.9 0.7l127-0.1zm-936.4-307.2v-25h94 94v25 25h-94-94zm1318-944.1v-171.4l-11.8-5.8c-78-38.7-141.2-94.1-188.3-165.1-49.4-74.6-81.3-168.3-92.9-273.1-4.2-37.8-4.5-46.7-4.5-104.5 0-59.3 0.4-68.1 5.5-108 13-102.8 43.8-192.9 92.3-270.5 21-33.4 43-61 72.1-90 12.1-12.2 27.3-26.4 33.6-31.7 67.4-55.9 149.4-92.5 237-105.7 7.4-1.1 20.2-2.8 28.5-3.8 14.1-1.6 62.8-1.7 884.5-2.1 613.9-0.2 875.3 0 889.5 0.8 101.5 5.5 188.6 33.3 267.5 85.5 45.1 29.8 84.4 66.8 119.2 112 34 44.2 62.4 97.4 83.9 157.5 35 97.2 48.5 222.3 36.8 339.5-16 160.8-82.3 297.8-188 388.6-66.3 57.1-146 95.7-233.4 113.4-14.4 2.9-47.7 7.8-66 9.7-9.5 1-182.1 1.3-812 1.8l-800 0.5-113 94.1c-107.3 89.2-235 195.3-238.8 198.3-1.7 1.3-1.7-7.4-1.7-170zm103.1 21c28.3-23.5 92.3-76.7 142.3-118.2l90.9-75.7 808.6-0.3 808.6-0.3 18-2.1c54.1-6.5 96.2-17 138.8-34.7 161.8-67.4 266.6-216.7 291.2-415 6.5-51.7 7.2-117.8 1.9-173.8-11.3-120.3-50.9-227.6-113.2-307.1-83-105.8-199.3-165.3-341.7-174.7-12.5-0.8-251.3-1-889-0.8-823.1 0.3-872.9 0.5-886.5 2.1-58.9 7.1-104.6 20.5-153.5 44.9-30.6 15.3-55 31.3-82.5 54.3-83.3 69.2-141.5 171-168.5 294.5-16.1 73.7-21 159.4-14 243 14.7 174.4 82.5 306.6 198.6 387.3 21.7 15.1 48.8 30 83.1 45.7l13.8 6.3v134c0 79.9 0.3 133.8 0.9 133.6 0.5-0.2 24-19.6 52.2-43z"/>
	</g>
</svg>