<svg version="1.2" xmlns="http://www.w3.org/2000/svg" viewBox="0 0 452 493" width="452" height="493">
	<title>quantum-processor</title>
	<style>
		.s0 { fill: #000000 } 
	</style>
	<path class="s0" d="m434.1 126.8c-17.7-30.7-60.6-43.2-118.5-35-21.8-54.2-54.1-85.1-89.6-85.1-35.5 0-67.8 30.9-89.6 85.1-57.9-8.2-100.8 4.3-118.5 35-17.7 30.8-7.2 74.2 28.9 120.2-36.1 46-46.6 89.4-28.9 120.1 17.7 30.8 60.6 43.3 118.5 35.1 21.8 54.2 54.1 85.1 89.6 85.1 35.5 0 67.8-30.9 89.6-85.1 57.9 8.2 100.8-4.3 118.5-35.1 17.7-30.7 7.2-74.1-28.9-120.1 36.1-46 46.6-89.4 28.9-120.2zm-21.6 227.8c-13 22.6-51.4 30.5-102.7 21.3q-0.1 0-0.2 0c-25-4.5-51.5-12.7-78.7-24.3-6.3-2.7-13.7 0.2-16.4 6.6-2.7 6.3 0.2 13.7 6.6 16.4 23.7 10.1 47 17.8 69.4 22.9-17.4 40.9-41 64.8-64.5 64.8-26 0-52.1-29.3-69.8-78.3q0-0.1 0-0.1c-8.6-23.9-14.8-50.9-18.3-80.3-0.8-6.9-7.1-11.8-13.9-11-6.9 0.8-11.8 7.1-10.9 13.9 3 25.7 8 49.7 14.8 71.6-44.1 5.4-76.6-3.1-88.3-23.5-13-22.5-0.7-59.7 32.9-99.5q0-0.1 0-0.1c16.4-19.4 36.7-38.3 60.5-56 5.5-4.2 6.6-12 2.5-17.5-4.2-5.6-12-6.7-17.5-2.5-20.7 15.4-39 31.7-54.6 48.6-26.7-35.5-35.6-67.9-23.8-88.3 13-22.5 51.3-30.4 102.7-21.2q0 0 0 0c25 4.4 51.5 12.6 78.8 24.3 1.6 0.7 3.2 1 4.9 1 4.8 0 9.5-2.8 11.5-7.6 2.7-6.3-0.3-13.7-6.6-16.4-23.7-10.1-47-17.8-69.4-22.9 17.4-40.9 41-64.8 64.5-64.8 26 0 52.1 29.3 69.8 78.3q0 0 0 0.1c8.6 23.8 14.8 50.9 18.3 80.3 0.8 6.4 6.2 11.1 12.4 11.1q0.8 0 1.5-0.1c6.9-0.9 11.8-7.1 10.9-13.9-3-25.7-8-49.7-14.8-71.6 44.1-5.4 76.6 3.1 88.4 23.4 13 22.5 0.6 59.8-33 99.6q0 0.1-0.1 0.1c-16.3 19.4-36.6 38.3-60.4 56-5.5 4.2-6.6 12-2.5 17.5 2.5 3.3 6.3 5 10.1 5 2.6 0 5.2-0.8 7.4-2.5 20.7-15.5 39-31.8 54.6-48.6 26.7 35.5 35.6 67.9 23.9 88.2z"/>
	<path class="s0" d="m302.9 253.5h-17v-13h17c6.9 0 12.5-5.6 12.5-12.5 0-6.9-5.6-12.5-12.5-12.5h-18.5c-3.6-13-13.9-23.3-26.9-26.9v-18.5c0-6.9-5.6-12.5-12.5-12.5-6.9 0-12.5 5.6-12.5 12.5v17h-13v-17c0-6.9-5.6-12.5-12.5-12.5-6.9 0-12.5 5.6-12.5 12.5v18.5c-13 3.6-23.2 13.9-26.9 26.9h-18.5c-6.9 0-12.5 5.6-12.5 12.5 0 6.9 5.6 12.5 12.5 12.5h17v13h-17c-6.9 0-12.5 5.6-12.5 12.5 0 6.9 5.6 12.5 12.5 12.5h18.5c3.7 13 13.9 23.3 26.9 26.9v18.5c0 6.9 5.6 12.5 12.5 12.5 6.9 0 12.5-5.6 12.5-12.5v-17h13v17c0 6.9 5.6 12.5 12.5 12.5 6.9 0 12.5-5.6 12.5-12.5v-18.5c13-3.6 23.3-13.9 26.9-26.9h18.5c6.9 0 12.5-5.6 12.5-12.5 0-6.9-5.6-12.5-12.5-12.5zm-42 14.4c0 7.7-6.3 14-14 14h-41.8c-7.7 0-14-6.3-14-14v-41.8c0-7.7 6.3-14 14-14h41.8c7.7 0 14 6.3 14 14z"/>
</svg>