<svg version="1.2" xmlns="http://www.w3.org/2000/svg" viewBox="0 0 78 78" width="78" height="78">
	<title>ai-research</title>
	<style>
		.s0 { fill: #000000 } 
	</style>
	<path class="s0" d="m7.5 7.5c-6.3 6.4-4.8 18.5 3 31.5-7.6 12.7-9.4 25-3 31.5 6.4 6.3 18.5 4.8 31.5-3 12.7 7.6 25 9.4 31.5 3 6.3-6.4 4.8-18.5-3-31.5 7.6-12.7 9.4-25 3-31.5-4.2-4.1-10.9-4.9-18.8-2.7-1.3 0.4-2.1 1.8-1.7 3.1 0.4 1.3 1.7 2.1 3.1 1.7 6.3-1.8 11.2-1.2 13.8 1.5 6.5 6.4 0 24.7-15.5 40.3q-1.8 1.8-3.7 3.4c-1 0.9-1.1 2.5-0.2 3.5 0.9 1.1 2.5 1.2 3.6 0.3q1.9-1.8 3.8-3.7c3.6-3.6 6.8-7.4 9.5-11.2 5.7 10.3 6.5 19.2 2.5 23.2-6.4 6.5-24.7 0-40.3-15.5q-1.8-1.8-3.4-3.7c-0.9-1-2.5-1.1-3.5-0.2-1.1 0.9-1.2 2.5-0.3 3.6q1.8 1.9 3.7 3.8c3.6 3.6 7.4 6.8 11.2 9.5-10.3 5.7-19.2 6.5-23.2 2.5-6.5-6.4 0-24.7 15.5-40.3q1.9-1.9 3.9-3.6l2.1-1.8c2.5-2.1 6-2.2 8.6-0.3l2.3 1.7c0.7 0.5 1.7 0.3 2.2-0.4 0.4-0.5 0.4-1.2 0-1.7l-1.5-2.5c-1.7-2.6-1.4-6 0.6-8.3l1.8-2.1c0.6-0.7 0.5-1.8-0.2-2.3-0.5-0.5-1.2-0.6-1.8-0.3l-4.1 2.1c-2.3 1.1-5 0.9-7.1-0.5l-3-2.1c-0.7-0.5-1.7-0.3-2.2 0.4-0.3 0.5-0.3 1.2 0 1.8l1.5 2.2c1.7 2.8 1.3 6.4-0.9 8.7l-1.8 1.8q-2 1.8-3.9 3.7c-3.6 3.6-6.8 7.4-9.5 11.2-5.7-10.3-6.5-19.2-2.5-23.2 2.1-2.1 5.5-2.9 10.1-2.3 1.3 0.2 2.6-0.7 2.8-2.1 0.2-1.4-0.7-2.6-2.1-2.8-6-0.9-11 0.3-14.4 3.6zm42.9 14.7c-0.9 1-0.9 2.6 0.1 3.5q0.4 0.5 0.9 0.9 2.8 2.9 5.3 5.9c0.9 1 2.4 1.2 3.5 0.3 1.1-0.9 1.2-2.5 0.3-3.5q-2.6-3.2-5.6-6.2-0.5-0.5-0.9-0.9c-1-1-2.6-1-3.6 0z"/>
</svg>